# xmcd
#
# Track frame offsets:
#	150
#	13380
#	27287
#	41204
#	59029
#	72947
#	88440
#	103442
#	120126
#	140313
#	155008
#	169439
#
# Disc length: 2489 seconds
# Revision: 1
# Processed by: cddbd v1.5.2PL0 Copyright (c) Steve Scherf et al.
# Submitted via: dBpowerAMP V12.0
#
DISCID=b609b70c
DTITLE=Donnie Soper -  Fly Like A Bird
DYEAR=2012
DGENRE=Country
TTITLE0=Una Paloma Blanca
TTITLE1=Can't Buy Love With Money
TTITLE2=Ode To Jack
TTITLE3=Fly Like A Bird
TTITLE4=Crystal Chandeliers
TTITLE5=Sweet Caroline
TTITLE6=The Wonder Of You
TTITLE7=I Believe In You
TTITLE8=Good Hearted Woman
TTITLE9=Some Days Are Diamonds
TTITLE10=Forever More
TTITLE11=Papa Whiskey November
EXTD=
EXTT0=
EXTT1=
EXTT2=
EXTT3=
EXTT4=
EXTT5=
EXTT6=
EXTT7=
EXTT8=
EXTT9=
EXTT10=
EXTT11=
PLAYORDER=
